<svg xmlns="http://www.w3.org/2000/svg" viewBox="0 0 145 50"><defs><style>.a{fill:#0079c1;}.b{fill:#ed1c24;}.c{fill:#fff;}</style></defs><path class="a" d="M16.27,19.44c0,2.62-1.2,4.06-4.34,4.06H9.24v-8c.34,0,1.48,0,1.82,0H12C15.19,15.47,16.27,16.83,16.27,19.44Zm6.39,10.42c0-4.12-3.36-5.61-7.44-5.7V24c3.47-.29,6.31-1.74,6.31-5.24,0-3.89-3.22-4.62-6.82-4.62-4.34,0-9.42.11-13.74,0v1.34c.91-.07,3.13.06,3.13,1.2V33.28c0,1.11-2.28,1.26-3.13,1.26v1.31c4.17-.11,9.13,0,13.33,0C18.72,35.85,22.66,34.35,22.66,29.86Zm-5.56-.42c0,3.41-1.19,5-5.31,5H9.22V24.91H12c3.77,0,5.16,1.27,5.16,4.5Z"/><path class="a" d="M50.61,35.81c-2,0-3.88,0-5.82,0V34.51c.88,0,3.33,0,3.33-1.23V17.88h-.07L39.28,36.11H38.23L29.68,17.84h-.06V33.28c0,1.21,2.42,1.23,3.34,1.23l0,1.34c-2.43-.08-5.73-.13-8.11,0V34.51c.92,0,3-.07,3-1.23V16.67c0-1.14-2.15-1.23-3-1.23V14.1c2.77.12,5.72.12,8.48,0l7.3,15.41,7.48-15.36c2.65.12,5.65.09,8.33,0v1.34c-.88,0-3.19.06-3.19,1.23V33.28c0,1.19,2.28,1.23,3.19,1.23v1.34C54.52,35.79,52.55,35.81,50.61,35.81Z"/><path class="a" d="M76.89,25c0,4.16-.41,9.92-6.57,9.92S63.73,29.1,63.73,25s.44-9.88,6.59-9.88S76.89,20.83,76.89,25Zm5.75,0c0-7.19-4.39-11.22-12.32-11.22S58,17.74,58,25s4.4,11.25,12.35,11.25S82.64,32.19,82.64,25Z"/><path class="b" d="M119.44,0a25,25,0,1,0,25,25A25,25,0,0,0,119.44,0Z"/><path class="c" d="M118.67,17.36l-4.34-5.66a1,1,0,0,0-.77-.38.93.93,0,0,0-.75.37l-5.17,6.5V28.4l5.16-6.59a1,1,0,0,1,1.57,0l4.36,5.7a.93.93,0,0,0,.7.36.9.9,0,0,0,.69-.36l4.36-5.7a1,1,0,0,1,.8-.39,1,1,0,0,1,.78.38l5.14,6.59V18.19L126,11.68a1,1,0,0,0-.75-.37,1,1,0,0,0-.78.38l-4.3,5.67a1,1,0,0,1-1.53,0Z"/><polygon class="c" points="131.23 35.88 107.62 35.88 107.62 35.88 107.62 35.88 107.62 28.4 131.23 28.4 131.23 28.4 131.23 28.4 131.23 35.88"/></svg>